<svg width="16" height="17" viewBox="0 0 16 17" fill="none" xmlns="http://www.w3.org/2000/svg">
<g clip-path="url(#clip0_4_177)">
<path d="M8 0.685425C3.58 0.685425 0 4.26542 0 8.68542C0 12.2254 2.29 15.2154 5.47 16.2754C5.87 16.3454 6.02 16.1054 6.02 15.8954C6.02 15.7054 6.01 15.0754 6.01 14.4054C4 14.7754 3.48 13.9154 3.32 13.4654C3.23 13.2354 2.84 12.5254 2.5 12.3354C2.22 12.1854 1.82 11.8154 2.49 11.8054C3.12 11.7954 3.57 12.3854 3.72 12.6254C4.44 13.8354 5.59 13.4954 6.05 13.2854C6.12 12.7654 6.33 12.4154 6.56 12.2154C4.78 12.0154 2.92 11.3254 2.92 8.26542C2.92 7.39542 3.23 6.67542 3.74 6.11542C3.66 5.91542 3.38 5.09542 3.82 3.99542C3.82 3.99542 4.49 3.78542 6.02 4.81542C6.66 4.63542 7.34 4.54542 8.02 4.54542C8.7 4.54542 9.38 4.63542 10.02 4.81542C11.55 3.77542 12.22 3.99542 12.22 3.99542C12.66 5.09542 12.38 5.91542 12.3 6.11542C12.81 6.67542 13.12 7.38542 13.12 8.26542C13.12 11.3354 11.25 12.0154 9.47 12.2154C9.76 12.4654 10.01 12.9454 10.01 13.6954C10.01 14.7654 10 15.6254 10 15.8954C10 16.1054 10.15 16.3554 10.55 16.2754C12.1382 15.7394 13.5183 14.7188 14.496 13.3572C15.4737 11.9956 15.9997 10.3617 16 8.68542C16 4.26542 12.42 0.685425 8 0.685425Z" fill="#F8C23B"/>
</g>
<defs>
<clipPath id="clip0_4_177">
<rect width="16" height="16" fill="white" transform="translate(0 0.685425)"/>
</clipPath>
</defs>
</svg>
