<svg width="16" height="17" viewBox="0 0 16 17" fill="none" xmlns="http://www.w3.org/2000/svg">
<g clip-path="url(#clip0_4_180)">
<path d="M0 1.83142C0 1.19842 0.526 0.685425 1.175 0.685425H14.825C15.474 0.685425 16 1.19842 16 1.83142V15.5394C16 16.1724 15.474 16.6854 14.825 16.6854H1.175C0.526 16.6854 0 16.1724 0 15.5394V1.83142ZM4.943 14.0794V6.85442H2.542V14.0794H4.943ZM3.743 5.86742C4.58 5.86742 5.101 5.31342 5.101 4.61942C5.086 3.91042 4.581 3.37142 3.759 3.37142C2.937 3.37142 2.4 3.91142 2.4 4.61942C2.4 5.31342 2.921 5.86742 3.727 5.86742H3.743ZM8.651 14.0794V10.0444C8.651 9.82843 8.667 9.61242 8.731 9.45842C8.904 9.02742 9.299 8.58042 9.963 8.58042C10.832 8.58042 11.179 9.24243 11.179 10.2144V14.0794H13.58V9.93542C13.58 7.71542 12.396 6.68342 10.816 6.68342C9.542 6.68342 8.971 7.38342 8.651 7.87642V7.90142H8.635C8.64031 7.89308 8.64564 7.88474 8.651 7.87642V6.85442H6.251C6.281 7.53242 6.251 14.0794 6.251 14.0794H8.651Z" fill="#F8C23B"/>
</g>
<defs>
<clipPath id="clip0_4_180">
<rect width="16" height="16" fill="white" transform="translate(0 0.685425)"/>
</clipPath>
</defs>
</svg>
