<svg width="16" height="17" viewBox="0 0 16 17" fill="none" xmlns="http://www.w3.org/2000/svg">
<path d="M1.5 2.18616C0.671875 2.18616 0 2.85803 0 3.68616C0 4.15803 0.221875 4.60178 0.6 4.88616L7.4 9.98616C7.75625 10.2518 8.24375 10.2518 8.6 9.98616L15.4 4.88616C15.7781 4.60178 16 4.15803 16 3.68616C16 2.85803 15.3281 2.18616 14.5 2.18616H1.5ZM0 5.68616V12.1862C0 13.2893 0.896875 14.1862 2 14.1862H14C15.1031 14.1862 16 13.2893 16 12.1862V5.68616L9.2 10.7862C8.4875 11.3205 7.5125 11.3205 6.8 10.7862L0 5.68616Z" fill="#F8C23B"/>
</svg>
