<svg width="16" height="17" viewBox="0 0 16 17" fill="none" xmlns="http://www.w3.org/2000/svg">
<g clip-path="url(#clip0_3_152)">
<path d="M5.15312 0.954849C4.9125 0.373599 4.27812 0.0642239 3.67188 0.229849L0.921875 0.979849C0.378125 1.12985 0 1.6236 0 2.1861C0 9.91735 6.26875 16.1861 14 16.1861C14.5625 16.1861 15.0563 15.808 15.2063 15.2642L15.9563 12.5142C16.1219 11.908 15.8125 11.2736 15.2312 11.033L12.2312 9.78297C11.7219 9.57047 11.1313 9.71735 10.7844 10.1455L9.52188 11.6861C7.32188 10.6455 5.54062 8.86422 4.5 6.66422L6.04063 5.40485C6.46875 5.05485 6.61562 4.46735 6.40312 3.95797L5.15312 0.957974V0.954849Z" fill="#F8C23B"/>
</g>
<defs>
<clipPath id="clip0_3_152">
<rect width="16" height="16" fill="white" transform="translate(0 0.186157)"/>
</clipPath>
</defs>
</svg>
