<svg width="16" height="17" viewBox="0 0 16 17" fill="none" xmlns="http://www.w3.org/2000/svg">
<g clip-path="url(#clip0_4_183)">
<path d="M16 8.68542C16 10.8072 15.1571 12.842 13.6569 14.3423C12.1566 15.8426 10.1217 16.6854 8 16.6854C5.87827 16.6854 3.84344 15.8426 2.34315 14.3423C0.842855 12.842 0 10.8072 0 8.68542C0 6.56369 0.842855 4.52886 2.34315 3.02857C3.84344 1.52828 5.87827 0.685425 8 0.685425C10.1217 0.685425 12.1566 1.52828 13.6569 3.02857C15.1571 4.52886 16 6.56369 16 8.68542ZM8.287 6.59142C7.509 6.91542 5.953 7.58542 3.621 8.60142C3.243 8.75142 3.044 8.89942 3.026 9.04342C2.996 9.28642 3.301 9.38242 3.716 9.51342L3.891 9.56843C4.299 9.70143 4.849 9.85642 5.134 9.86242C5.394 9.86842 5.683 9.76243 6.002 9.54243C8.181 8.07143 9.306 7.32842 9.376 7.31242C9.426 7.30042 9.496 7.28642 9.542 7.32842C9.589 7.36942 9.584 7.44842 9.579 7.46942C9.549 7.59842 8.352 8.71042 7.733 9.28642C7.54 9.46642 7.403 9.59343 7.375 9.62243C7.31334 9.68544 7.25067 9.74745 7.187 9.80842C6.807 10.1744 6.523 10.4484 7.202 10.8964C7.529 11.1124 7.791 11.2894 8.052 11.4674C8.336 11.6614 8.62 11.8544 8.988 12.0964C9.081 12.1564 9.171 12.2214 9.258 12.2834C9.589 12.5194 9.888 12.7314 10.255 12.6974C10.469 12.6774 10.69 12.4774 10.802 11.8774C11.067 10.4604 11.588 7.39142 11.708 6.12642C11.7153 6.02127 11.711 5.91562 11.695 5.81142C11.6856 5.72735 11.6449 5.64988 11.581 5.59442C11.49 5.53161 11.3815 5.49907 11.271 5.50142C10.971 5.50642 10.508 5.66742 8.287 6.59142Z" fill="#F8C23B"/>
</g>
<defs>
<clipPath id="clip0_4_183">
<rect width="16" height="16" fill="white" transform="translate(0 0.685425)"/>
</clipPath>
</defs>
</svg>
