<?xml version="1.0" encoding="UTF-8"?>
<svg xmlns="http://www.w3.org/2000/svg" xmlns:xlink="http://www.w3.org/1999/xlink" width="0" height="0">
	<symbol id="git">
		<g clip-path="url(#clip0_4_177)">
			<path d="M8 0.685425C3.58 0.685425 0 4.26542 0 8.68542C0 12.2254 2.29 15.2154 5.47 16.2754C5.87 16.3454 6.02 16.1054 6.02 15.8954C6.02 15.7054 6.01 15.0754 6.01 14.4054C4 14.7754 3.48 13.9154 3.32 13.4654C3.23 13.2354 2.84 12.5254 2.5 12.3354C2.22 12.1854 1.82 11.8154 2.49 11.8054C3.12 11.7954 3.57 12.3854 3.72 12.6254C4.44 13.8354 5.59 13.4954 6.05 13.2854C6.12 12.7654 6.33 12.4154 6.56 12.2154C4.78 12.0154 2.92 11.3254 2.92 8.26542C2.92 7.39542 3.23 6.67542 3.74 6.11542C3.66 5.91542 3.38 5.09542 3.82 3.99542C3.82 3.99542 4.49 3.78542 6.02 4.81542C6.66 4.63542 7.34 4.54542 8.02 4.54542C8.7 4.54542 9.38 4.63542 10.02 4.81542C11.55 3.77542 12.22 3.99542 12.22 3.99542C12.66 5.09542 12.38 5.91542 12.3 6.11542C12.81 6.67542 13.12 7.38542 13.12 8.26542C13.12 11.3354 11.25 12.0154 9.47 12.2154C9.76 12.4654 10.01 12.9454 10.01 13.6954C10.01 14.7654 10 15.6254 10 15.8954C10 16.1054 10.15 16.3554 10.55 16.2754C12.1382 15.7394 13.5183 14.7188 14.496 13.3572C15.4737 11.9956 15.9997 10.3617 16 8.68542C16 4.26542 12.42 0.685425 8 0.685425Z" />
		</g>
		<defs>
			<clipPath>
				<rect width="16" height="16" transform="translate(0 0.685425)" />
			</clipPath>
		</defs>
	</symbol>
	<symbol id="linkedin">
		<g clip-path="url(#clip0_4_180)">
			<path d="M0 1.83142C0 1.19842 0.526 0.685425 1.175 0.685425H14.825C15.474 0.685425 16 1.19842 16 1.83142V15.5394C16 16.1724 15.474 16.6854 14.825 16.6854H1.175C0.526 16.6854 0 16.1724 0 15.5394V1.83142ZM4.943 14.0794V6.85442H2.542V14.0794H4.943ZM3.743 5.86742C4.58 5.86742 5.101 5.31342 5.101 4.61942C5.086 3.91042 4.581 3.37142 3.759 3.37142C2.937 3.37142 2.4 3.91142 2.4 4.61942C2.4 5.31342 2.921 5.86742 3.727 5.86742H3.743ZM8.651 14.0794V10.0444C8.651 9.82843 8.667 9.61242 8.731 9.45842C8.904 9.02742 9.299 8.58042 9.963 8.58042C10.832 8.58042 11.179 9.24243 11.179 10.2144V14.0794H13.58V9.93542C13.58 7.71542 12.396 6.68342 10.816 6.68342C9.542 6.68342 8.971 7.38342 8.651 7.87642V7.90142H8.635C8.64031 7.89308 8.64564 7.88474 8.651 7.87642V6.85442H6.251C6.281 7.53242 6.251 14.0794 6.251 14.0794H8.651Z" />
		</g>
		<defs>
			<clipPath>
				<rect width="16" height="16" transform="translate(0 0.685425)" />
			</clipPath>
		</defs>
	</symbol>
	<symbol id="mail">
		<path d="M1.5 2.18616C0.671875 2.18616 0 2.85803 0 3.68616C0 4.15803 0.221875 4.60178 0.6 4.88616L7.4 9.98616C7.75625 10.2518 8.24375 10.2518 8.6 9.98616L15.4 4.88616C15.7781 4.60178 16 4.15803 16 3.68616C16 2.85803 15.3281 2.18616 14.5 2.18616H1.5ZM0 5.68616V12.1862C0 13.2893 0.896875 14.1862 2 14.1862H14C15.1031 14.1862 16 13.2893 16 12.1862V5.68616L9.2 10.7862C8.4875 11.3205 7.5125 11.3205 6.8 10.7862L0 5.68616Z" />
	</symbol>
	<symbol id="phone-solid">
		<g clip-path="url(#clip0_3_152)">
			<path d="M5.15312 0.954849C4.9125 0.373599 4.27812 0.0642239 3.67188 0.229849L0.921875 0.979849C0.378125 1.12985 0 1.6236 0 2.1861C0 9.91735 6.26875 16.1861 14 16.1861C14.5625 16.1861 15.0563 15.808 15.2063 15.2642L15.9563 12.5142C16.1219 11.908 15.8125 11.2736 15.2312 11.033L12.2312 9.78297C11.7219 9.57047 11.1313 9.71735 10.7844 10.1455L9.52188 11.6861C7.32188 10.6455 5.54062 8.86422 4.5 6.66422L6.04063 5.40485C6.46875 5.05485 6.61562 4.46735 6.40312 3.95797L5.15312 0.957974V0.954849Z" />
		</g>
		<defs>
			<clipPath>
				<rect width="16" height="16" transform="translate(0 0.186157)" />
			</clipPath>
		</defs>
	</symbol>
	<symbol id="telegram">
		<g clip-path="url(#clip0_4_183)">
			<path d="M16 8.68542C16 10.8072 15.1571 12.842 13.6569 14.3423C12.1566 15.8426 10.1217 16.6854 8 16.6854C5.87827 16.6854 3.84344 15.8426 2.34315 14.3423C0.842855 12.842 0 10.8072 0 8.68542C0 6.56369 0.842855 4.52886 2.34315 3.02857C3.84344 1.52828 5.87827 0.685425 8 0.685425C10.1217 0.685425 12.1566 1.52828 13.6569 3.02857C15.1571 4.52886 16 6.56369 16 8.68542ZM8.287 6.59142C7.509 6.91542 5.953 7.58542 3.621 8.60142C3.243 8.75142 3.044 8.89942 3.026 9.04342C2.996 9.28642 3.301 9.38242 3.716 9.51342L3.891 9.56843C4.299 9.70143 4.849 9.85642 5.134 9.86242C5.394 9.86842 5.683 9.76243 6.002 9.54243C8.181 8.07143 9.306 7.32842 9.376 7.31242C9.426 7.30042 9.496 7.28642 9.542 7.32842C9.589 7.36942 9.584 7.44842 9.579 7.46942C9.549 7.59842 8.352 8.71042 7.733 9.28642C7.54 9.46642 7.403 9.59343 7.375 9.62243C7.31334 9.68544 7.25067 9.74745 7.187 9.80842C6.807 10.1744 6.523 10.4484 7.202 10.8964C7.529 11.1124 7.791 11.2894 8.052 11.4674C8.336 11.6614 8.62 11.8544 8.988 12.0964C9.081 12.1564 9.171 12.2214 9.258 12.2834C9.589 12.5194 9.888 12.7314 10.255 12.6974C10.469 12.6774 10.69 12.4774 10.802 11.8774C11.067 10.4604 11.588 7.39142 11.708 6.12642C11.7153 6.02127 11.711 5.91562 11.695 5.81142C11.6856 5.72735 11.6449 5.64988 11.581 5.59442C11.49 5.53161 11.3815 5.49907 11.271 5.50142C10.971 5.50642 10.508 5.66742 8.287 6.59142Z" />
		</g>
		<defs>
			<clipPath>
				<rect width="16" height="16" transform="translate(0 0.685425)" />
			</clipPath>
		</defs>
	</symbol>
</svg>
